<svg xmlns="http://www.w3.org/2000/svg" width="756" height="1272" viewBox="0 0 756 1272" fill="none">
    <mask id="mask0_1516_64042" style="mask-type:alpha" maskUnits="userSpaceOnUse" x="0" y="0" width="1475"
        height="1272">
        <rect x="0.634766" y="567.595" width="1252" height="790" transform="rotate(-26.945 0.634766 567.595)"
            fill="url(#paint0_radial_1516_64042)"></rect>
    </mask>
    <g mask="url(#mask0_1516_64042)">
        <path
            d="M1367.46 549.807C1367.46 549.807 1261.78 534.169 1204.3 562.07C1160.02 583.562 1156.07 626.814 1111.17 646.989C1054.3 672.548 1017.16 666.173 951.53 649.613C885.902 633.054 821.527 597.338 753.985 635.047C690.479 670.502 670.07 727.061 661.812 796.882C653.554 866.704 655.369 971.79 612.669 1006.96C569.969 1042.12 548.337 1017.22 496.399 1041.94C444.462 1066.66 421.554 1113.19 392.241 1183.51C383.528 1204.41 378.538 1241.51 378.538 1241.51"
            stroke="#ed0206" stroke-width="3"></path>
        <path
            d="M1336.47 488.839C1336.47 488.839 1230.79 473.2 1173.31 501.101C1129.03 522.594 1125.08 565.845 1080.18 586.02C1023.31 611.579 986.168 605.204 920.54 588.645C854.912 572.085 790.537 536.37 722.994 574.078C659.489 609.533 639.08 666.092 630.822 735.914C622.564 805.735 624.379 910.821 581.679 945.987C538.978 981.154 517.347 956.253 465.409 980.971C413.472 1005.69 390.563 1052.22 361.251 1122.54C352.538 1143.44 347.548 1180.54 347.548 1180.54"
            stroke="#ed0206" stroke-width="3"></path>
        <path
            d="M1305.48 427.872C1305.48 427.872 1199.8 412.233 1142.32 440.135C1098.04 461.627 1094.09 504.879 1049.19 525.054C992.318 550.612 955.178 544.237 889.55 527.678C823.922 511.118 759.547 475.403 692.004 513.112C628.499 548.566 608.089 605.126 599.831 674.947C591.574 744.768 593.389 849.854 550.688 885.021C507.988 920.187 486.356 895.286 434.419 920.005C382.481 944.723 359.573 991.256 330.26 1061.57C321.547 1082.47 316.557 1119.58 316.557 1119.58"
            stroke="#ed0206" stroke-width="3"></path>
        <path
            d="M1274.49 366.903C1274.49 366.903 1168.81 351.265 1111.33 379.166C1067.05 400.658 1063.1 443.91 1018.2 464.085C961.328 489.643 924.188 483.269 858.56 466.709C792.932 450.15 728.557 414.434 661.014 452.143C597.508 487.598 577.099 544.157 568.841 613.978C560.583 683.799 562.399 788.885 519.698 824.052C476.998 859.218 455.366 834.318 403.429 859.036C351.491 883.754 328.583 930.287 299.27 1000.6C290.557 1021.5 285.567 1058.61 285.567 1058.61"
            stroke="#ed0206" stroke-width="3"></path>
        <path
            d="M1243.49 305.936C1243.49 305.936 1137.82 290.298 1080.34 318.199C1036.06 339.691 1032.1 382.943 987.207 403.118C930.334 428.676 893.194 422.302 827.566 405.742C761.937 389.183 697.562 353.467 630.02 391.176C566.514 426.631 546.105 483.19 537.847 553.011C529.589 622.833 531.404 727.919 488.704 763.085C446.004 798.251 424.372 773.351 372.435 798.069C320.497 822.787 297.589 869.32 268.276 939.635C259.563 960.535 254.573 997.641 254.573 997.641"
            stroke="#ed0206" stroke-width="3"></path>
        <path
            d="M1212.5 244.968C1212.5 244.968 1106.83 229.33 1049.35 257.231C1005.07 278.723 1001.11 321.975 956.216 342.15C899.342 367.708 862.203 361.334 796.574 344.774C730.946 328.215 666.571 292.499 599.029 330.208C535.523 365.662 515.114 422.222 506.856 492.043C498.598 561.864 500.413 666.95 457.713 702.117C415.013 737.283 393.381 712.383 341.443 737.101C289.506 761.819 266.598 808.352 237.285 878.667C228.572 899.567 223.582 936.673 223.582 936.673"
            stroke="#ed0206" stroke-width="3"></path>
    </g>
    <defs>
        <radialGradient id="paint0_radial_1516_64042" cx="0" cy="0" r="1" gradientUnits="userSpaceOnUse"
            gradientTransform="translate(626.635 1100.09) rotate(-90) scale(361 450.336)">
            <stop stop-color="#263F9B"></stop>
            <stop offset="0.505208" stop-color="#263F9B" stop-opacity="0.37"></stop>
            <stop offset="1" stop-color="#263F9B" stop-opacity="0.24"></stop>
        </radialGradient>
    </defs>
</svg>